Coordinates
version=1
nRows=16
nColumns=36
inDegrees=yes

Units are S.I. units (second, meters, Newtons, ...)
If the header above contains a line with 'inDegrees', this indicates whether rotational values are in degrees (yes) or radians (no).

endheader
time	pelvis_tilt	pelvis_list	pelvis_rotation	pelvis_tx	pelvis_ty	pelvis_tz	hip_flexion_r	hip_adduction_r	hip_rotation_r	knee_angle_r	knee_angle_r_beta	ankle_angle_r	subtalar_angle_r	mtp_angle_r	hip_flexion_l	hip_adduction_l	hip_rotation_l	knee_angle_l	knee_angle_l_beta	ankle_angle_l	subtalar_angle_l	mtp_angle_l	lumbar_extension	lumbar_bending	lumbar_rotation	arm_flex_r	arm_add_r	arm_rot_r	elbow_flex_r	pro_sup_r	arm_flex_l	arm_add_l	arm_rot_l	elbow_flex_l	pro_sup_l
      5.32500000	    -85.98778198	      6.66231518	   -179.63949676	      0.92321626	      0.43183391	     -0.59975102	     10.53302127	      1.07033851	    -13.61554853	     11.65807346	      0.20347177	     15.40798981	      3.58604598	     -7.49999987	     12.85298135	    -15.03624967	    -17.84639448	     21.70492125	      0.37882234	     28.86470304	     13.98122159	     -7.49999987	    -19.98999730	      8.91776953	      1.70156323	      8.66803683	     -8.05439299	     -0.80558186	     18.94946995	     96.11814575	      6.53647504	     -5.87579715	      3.98749700	     23.73377528	    104.53944245
      5.33333333	    -86.28462226	      6.71735620	   -179.57376666	      0.92315072	      0.43404074	     -0.59927909	     10.20632393	      1.06987157	    -13.94569331	     11.93770270	      0.20835222	     15.28212613	      3.82407606	     -7.49999987	     12.46579035	    -15.01803125	    -17.58232222	     21.72288869	      0.37913593	     28.58017777	     13.99087203	     -7.49999987	    -20.08464883	      9.01301960	      1.84806952	      9.52957964	     -8.07372218	     -0.08116635	     19.12516187	     94.45493379	      7.49403926	     -5.81391299	      4.82105032	     23.66095030	    102.60584110
      5.34166667	    -86.86453244	      6.60777117	   -179.56846323	      0.92364796	      0.43684242	     -0.59919239	      9.42603014	      1.09535855	    -13.02979728	     11.94749279	      0.20852309	     14.81740522	      2.64036632	     -7.49999987	     11.49130773	    -14.74062357	    -17.37787735	     21.37273505	      0.37302460	     28.23664930	     13.66036107	     -7.49999987	    -20.44902937	      8.86261254	      1.99170909	     10.37804283	     -7.87515354	     -0.84146958	     19.36166272	     96.53795433	      8.32482199	     -5.76718333	      4.20439540	     23.78895072	    104.79315488
      5.35000000	    -87.20305728	      7.07287780	   -179.27710828	      0.92363740	      0.43937106	     -0.59897949	      8.75622581	      1.72654181	    -12.73372240	     11.65530402	      0.20342343	     14.58385448	      1.89139423	     -7.49999987	     11.28742468	    -15.22586591	    -16.81766016	     21.75073598	      0.37962196	     28.29644161	     13.42617135	     -7.49999987	    -20.52499541	      9.46325956	      2.03900539	     11.21623236	     -7.83881851	     -0.92767547	     19.63653098	     97.05345605	      9.28295819	     -5.73032482	      4.82813136	     23.68075506	    105.12637757
      5.35833333	    -87.17463010	      7.67352830	   -179.74925674	      0.92357333	      0.44034533	     -0.60038035	      8.72125540	      2.54146062	    -12.48801452	     11.54527033	      0.20150298	     14.27153268	      2.06663390	     -7.49999987	     11.48764639	    -16.08980539	    -16.79682393	     22.34353213	      0.38996820	     28.33133449	     13.10417876	     -7.49999987	    -20.51662905	      9.99771093	      2.78578847	     12.24778894	     -7.92987860	     -0.72873195	     19.98255685	     97.32966323	     10.35424208	     -5.47326045	      5.09655348	     23.57243537	    104.94019930
      5.36666667	    -87.59749071	      7.74149562	   -179.83865954	      0.92404737	      0.44288425	     -0.60046426	      8.07480374	      2.73207264	    -11.85143592	     11.50259394	      0.20075814	     14.12837489	      1.42229267	     -7.49999987	     10.82078025	    -16.17699839	    -16.71338275	     22.36774093	      0.39039073	     28.26799725	     12.83763218	     -7.49999987	    -20.76768122	     10.06253796	      3.00048483	     13.27609601	     -7.96685201	     -0.00259219	     20.14676349	     97.24856657	     11.30845271	     -5.40238310	      5.56706112	     23.60406448	    104.82631105
      5.37500000	    -87.84825401	      8.09352565	   -179.98278712	      0.92409465	      0.44531469	     -0.60094672	      7.53783624	      3.30594723	    -11.07721301	     11.27106622	      0.19671722	     13.78577161	      0.54112177	     -7.49999987	     10.52358326	    -16.76727041	    -16.94552864	     22.83277827	      0.39850716	     28.37012367	     12.89020600	     -7.49999987	    -20.82913860	     10.40051712	      3.41084658	     14.13241734	     -8.02277169	      0.32167013	     20.52399336	     97.24935920	     12.30022175	     -5.39224900	      6.18018883	     23.65453758	    105.03646666
      5.38333333	    -87.94272636	      8.47336968	   -179.87672629	      0.92366534	      0.44714617	     -0.60093766	      7.35237348	      3.77741060	    -10.94581816	     11.31519366	      0.19748738	     13.67767133	      0.17274592	     -7.49999987	     10.70701210	    -17.44236134	    -17.17247495	     23.61694714	      0.41219349	     28.58167630	     13.29537630	     -7.49999987	    -20.71980068	     10.84054196	      3.54266336	     15.04807738	     -8.05496119	      0.61180426	     20.79957850	     97.75292253	     13.25817621	     -5.34803566	      6.29502693	     23.85434105	    105.29199930
      5.39166667	    -88.19811489	      8.64942197	   -179.98007723	      0.92370476	      0.44930084	     -0.60100260	      6.98944724	      4.01922761	    -10.63094320	     11.38293098	      0.19866962	     13.61897495	     -0.05572860	     -7.49999987	     10.36914020	    -17.81310578	    -17.62570574	     23.93076187	      0.41767059	     28.65027317	     13.64283430	     -7.49999987	    -20.80840692	     11.00793668	      3.83584972	     16.03727549	     -8.06297124	      0.83378246	     20.96757128	     98.47920117	     14.18745587	     -5.20617164	      6.36355564	     23.93104588	    105.69548779
      5.40000000	    -88.30843611	      9.26726930	   -179.87645272	      0.92326022	      0.45196026	     -0.60125031	      6.57933330	      4.84323259	    -10.27010977	     11.13615425	      0.19436256	     13.38642884	     -0.72103102	     -7.49999987	     10.41346373	    -18.78455466	    -18.03886961	     24.53615347	      0.42823666	     28.89998339	     14.51106435	     -7.49999987	    -20.63559895	     11.72211395	      4.02814258	     16.94470085	     -8.17342045	      1.83047028	     21.16646877	     96.91266309	     14.98610037	     -5.03624887	      6.81190576	     23.91308901	    105.19371739
      5.40833333	    -88.81907891	      9.02481588	   -180.20328220	      0.92421146	      0.45488516	     -0.60163685	      5.93336476	      4.56512313	    -10.12382105	     11.48497782	      0.20045068	     13.41258449	     -0.40038772	     -7.49999987	      9.36131137	    -18.53477478	    -18.61038952	     24.26924953	      0.42357831	     28.29281074	     14.65010112	     -7.49999987	    -20.91841449	     11.38361949	      4.50122383	     17.80817056	     -8.16981034	      1.70524827	     21.37779520	     97.16607918	     16.08191435	     -5.05990244	      7.40700295	     23.68617583	    105.44657481
      5.41666667	    -88.99510516	      9.13198932	   -180.11351052	      0.92415239	      0.45735346	     -0.60174795	      5.64735166	      4.67961917	    -10.21666188	     11.68070291	      0.20386672	     13.62253840	     -0.40197154	     -7.49999987	      9.27918908	    -18.74065578	    -18.57347022	     24.74529177	      0.43188682	     28.46785635	     14.66320562	     -7.49999987	    -20.80675855	     11.51570598	      4.63105392	     18.67018565	     -8.12667391	      1.65099772	     21.58332602	     97.86202285	     17.07249289	     -5.12573201	      7.79316234	     23.76861269	    105.53078938
      5.42500000	    -89.09106839	      9.30677182	   -180.05391770	      0.92407468	      0.45961706	     -0.60184287	      5.50393406	      4.88114265	    -10.10188945	     11.87091331	      0.20718652	     13.71425994	     -0.69740872	     -7.49999987	      9.27755609	    -19.05052111	    -18.51803257	     25.25019103	      0.44069897	     28.63967574	     14.65414573	     -7.49999987	    -20.65054165	     11.72836595	      4.73729311	     19.59222498	     -8.14253680	      2.28319633	     21.77452364	     97.74222783	     18.02926609	     -5.19857319	      8.56885106	     23.82320272	    105.22845872
      5.43333333	    -89.15546504	      9.49225452	   -179.98149514	      0.92391011	      0.46175124	     -0.60178130	      5.38500436	      5.09282235	     -9.99004374	     12.01777775	      0.20974979	     13.76058777	     -1.06459772	     -7.49999987	      9.32643355	    -19.32284210	    -18.25952861	     25.70726965	      0.44867650	     28.76049579	     14.44700692	     -7.49999987	    -20.46730342	     11.97064449	      4.85441748	     20.49042617	     -8.11872127	      2.27763708	     22.09949426	     97.94555531	     18.95131557	     -5.17599656	      8.90389877	     23.93587346	    105.30906017
      5.44166667	    -89.19269380	      9.94396911	   -179.84788609	      0.92349415	      0.46427558	     -0.60162025	      4.97496964	      5.72082800	     -9.48729611	     11.58019595	      0.20211255	     13.51211489	     -1.87661753	     -7.49999987	      9.44660371	    -19.98076256	    -18.22946776	     26.29453303	      0.45892618	     28.99913943	     14.57853686	     -7.49999987	    -20.19396588	     12.53786446	      4.96523461	     21.37313192	     -8.22882286	      3.14907719	     22.37690448	     96.53830279	     19.75304641	     -5.09189776	      9.01794000	     24.18627306	    104.33301602
      5.45000000	    -89.24576627	     10.22991807	   -179.78686715	      0.92315100	      0.46666834	     -0.60151215	      4.59535996	      6.14557561	     -9.10759067	     11.25510846	      0.19643870	     13.41610262	     -2.38008610	     -7.49999987	      9.38196066	    -20.35597779	    -18.11887983	     26.62408166	      0.46467789	     29.10525651	     14.50197094	     -7.49999987	    -19.94900519	     12.89207678	      5.08509074	     22.21895730	     -8.26011775	      3.21440361	     22.76515270	     96.44675083	     20.51059429	     -5.01515862	      8.61460894	     24.63134228	    104.27647671
